<svg width="18" height="19" viewBox="0 0 18 19" fill="none" xmlns="http://www.w3.org/2000/svg">
<path id="Vector" d="M5.3617 6.43617C5.3617 6.28381 5.42223 6.13769 5.52996 6.02996C5.63769 5.92223 5.78381 5.8617 5.93617 5.8617H12.0638C12.2162 5.8617 12.3623 5.92223 12.47 6.02996C12.5778 6.13769 12.6383 6.28381 12.6383 6.43617C12.6383 6.58853 12.5778 6.73465 12.47 6.84238C12.3623 6.95011 12.2162 7.01064 12.0638 7.01064H5.93617C5.78381 7.01064 5.63769 6.95011 5.52996 6.84238C5.42223 6.73465 5.3617 6.58853 5.3617 6.43617ZM5.93617 10.0745H12.0638C12.2162 10.0745 12.3623 10.0139 12.47 9.90621C12.5778 9.79848 12.6383 9.65236 12.6383 9.5C12.6383 9.34764 12.5778 9.20152 12.47 9.09379C12.3623 8.98605 12.2162 8.92553 12.0638 8.92553H5.93617C5.78381 8.92553 5.63769 8.98605 5.52996 9.09379C5.42223 9.20152 5.3617 9.34764 5.3617 9.5C5.3617 9.65236 5.42223 9.79848 5.52996 9.90621C5.63769 10.0139 5.78381 10.0745 5.93617 10.0745ZM9 11.9894H5.93617C5.78381 11.9894 5.63769 12.0499 5.52996 12.1576C5.42223 12.2654 5.3617 12.4115 5.3617 12.5638C5.3617 12.7162 5.42223 12.8623 5.52996 12.97C5.63769 13.0778 5.78381 13.1383 5.93617 13.1383H9C9.15236 13.1383 9.29848 13.0778 9.40621 12.97C9.51394 12.8623 9.57447 12.7162 9.57447 12.5638C9.57447 12.4115 9.51394 12.2654 9.40621 12.1576C9.29848 12.0499 9.15236 11.9894 9 11.9894ZM18 1.84043V12.2469C18.0003 12.423 17.9658 12.5974 17.8984 12.7601C17.8311 12.9228 17.7322 13.0705 17.6074 13.1948L12.6948 18.1074C12.5705 18.2322 12.4228 18.3311 12.2601 18.3984C12.0974 18.4658 11.923 18.5003 11.7469 18.5H1.34043C0.984922 18.5 0.64398 18.3588 0.392602 18.1074C0.141223 17.856 0 17.5151 0 17.1596V1.84043C0 1.48492 0.141223 1.14398 0.392602 0.892602C0.64398 0.641223 0.984922 0.5 1.34043 0.5H16.6596C17.0151 0.5 17.356 0.641223 17.6074 0.892602C17.8588 1.14398 18 1.48492 18 1.84043ZM1.34043 17.3511H11.4894V12.5638C11.4894 12.4115 11.5499 12.2654 11.6576 12.1576C11.7654 12.0499 11.9115 11.9894 12.0638 11.9894H16.8511V1.84043C16.8511 1.78964 16.8309 1.74093 16.795 1.70502C16.7591 1.66911 16.7104 1.64894 16.6596 1.64894H1.34043C1.28964 1.64894 1.24093 1.66911 1.20502 1.70502C1.16911 1.74093 1.14894 1.78964 1.14894 1.84043V17.1596C1.14894 17.2104 1.16911 17.2591 1.20502 17.295C1.24093 17.3309 1.28964 17.3511 1.34043 17.3511ZM16.0391 13.1383H12.6383V16.5391L16.0391 13.1383Z" fill="#555555"/>
</svg>
