<svg width="31" height="30" viewBox="0 0 31 30" fill="none" xmlns="http://www.w3.org/2000/svg">
<g id="Group 73">
<path id="Ellipse 21" d="M29.4324 15C29.4324 22.7185 23.0812 29 15.2162 29C7.35128 29 1 22.7185 1 15C1 7.28146 7.35128 1 15.2162 1C23.0812 1 29.4324 7.28146 29.4324 15Z" stroke="#00AFEF" stroke-width="2"/>
<path id="Arrow 1" d="M15.7471 9.96967C15.4542 9.67678 14.9794 9.67678 14.6865 9.96967L9.9135 14.7426C9.6206 15.0355 9.6206 15.5104 9.9135 15.8033C10.2064 16.0962 10.6813 16.0962 10.9742 15.8033L15.2168 11.5607L19.4594 15.8033C19.7523 16.0962 20.2272 16.0962 20.5201 15.8033C20.813 15.5104 20.813 15.0355 20.5201 14.7426L15.7471 9.96967ZM15.9668 21L15.9668 10.5L14.4668 10.5L14.4668 21L15.9668 21Z" fill="#00AFEF"/>
</g>
</svg>
