<svg width="16" height="15" viewBox="0 0 16 15" fill="none" xmlns="http://www.w3.org/2000/svg">
<path d="M6.95122 1.46341C6.27201 1.46341 5.62061 1.73323 5.14034 2.21351C4.66006 2.69378 4.39024 3.34518 4.39024 4.02439C4.39024 4.7036 4.66006 5.355 5.14034 5.83527C5.62061 6.31555 6.27201 6.58537 6.95122 6.58537C7.63043 6.58537 8.28183 6.31555 8.7621 5.83527C9.24238 5.355 9.5122 4.7036 9.5122 4.02439C9.5122 3.34518 9.24238 2.69378 8.7621 2.21351C8.28183 1.73323 7.63043 1.46341 6.95122 1.46341ZM2.92683 4.02439C2.92683 2.95706 3.35083 1.93344 4.10555 1.17872C4.86027 0.423997 5.88388 0 6.95122 0C8.01855 0 9.04217 0.423997 9.79689 1.17872C10.5516 1.93344 10.9756 2.95706 10.9756 4.02439C10.9756 5.09172 10.5516 6.11535 9.79689 6.87006C9.04217 7.62478 8.01855 8.04878 6.95122 8.04878C5.88388 8.04878 4.86027 7.62478 4.10555 6.87006C3.35083 6.11535 2.92683 5.09172 2.92683 4.02439ZM4.39024 10.2439C3.614 10.2439 2.86955 10.5523 2.32066 11.1012C1.77178 11.65 1.46341 12.3945 1.46341 13.1707H6.62195V14.6341H0V13.1707C0 12.0064 0.462542 10.8897 1.28587 10.0664C2.1092 9.24303 3.22588 8.78049 4.39024 8.78049H6.58537V10.2439H4.39024ZM10.4254 12.439V10.9756H12.2546V12.439H10.4254Z" fill="#6E7485"/>
<path d="M11.3409 14.9994C14.5735 14.9994 15.797 11.7067 15.797 11.7067C15.797 11.7067 14.5721 8.41406 11.3409 8.41406C8.10891 8.41406 6.88477 11.7067 6.88477 11.7067C6.88477 11.7067 8.10745 14.9994 11.3409 14.9994ZM11.3394 13.536C9.42525 13.536 8.50769 11.7067 8.50769 11.7067C8.50769 11.7067 9.42233 9.87748 11.3394 9.87748C13.2565 9.87748 14.1711 11.7067 14.1711 11.7067C14.1711 11.7067 13.2535 13.536 11.3394 13.536Z" fill="#6E7485"/>
</svg>
