<svg width="17" height="17" viewBox="0 0 17 17" fill="none" xmlns="http://www.w3.org/2000/svg">
<g id="fi:upload-cloud" clip-path="url(#clip0_1215_117622)">
<path id="Vector" d="M11.3332 11.3333L8.49984 8.5L5.6665 11.3333" stroke="#00AFEF" stroke-width="2" stroke-linecap="round" stroke-linejoin="round"/>
<path id="Vector_2" d="M8.5 8.5V14.875" stroke="#00AFEF" stroke-width="2" stroke-linecap="round" stroke-linejoin="round"/>
<path id="Vector_3" d="M14.4429 13.0245C15.1338 12.6479 15.6796 12.0519 15.9941 11.3306C16.3086 10.6094 16.374 9.80388 16.1799 9.04133C15.9858 8.27878 15.5433 7.60258 14.9223 7.11945C14.3012 6.63632 13.5369 6.37378 12.75 6.37326H11.8575C11.6431 5.54397 11.2435 4.77408 10.6887 4.12146C10.134 3.46885 9.43846 2.95049 8.65452 2.60536C7.87057 2.26023 7.01859 2.09731 6.16262 2.12884C5.30664 2.16038 4.46896 2.38556 3.71253 2.78744C2.95611 3.18932 2.30064 3.75746 1.79539 4.44913C1.29014 5.1408 0.948272 5.93801 0.795477 6.78083C0.642682 7.62365 0.682941 8.49013 0.913226 9.31515C1.14351 10.1402 1.55783 10.9022 2.12503 11.5441" stroke="#00AFEF" stroke-width="2" stroke-linecap="round" stroke-linejoin="round"/>
<path id="Vector_4" d="M11.3332 11.3333L8.49984 8.5L5.6665 11.3333" stroke="#00AFEF" stroke-width="2" stroke-linecap="round" stroke-linejoin="round"/>
</g>
<defs>
<clipPath id="clip0_1215_117622">
<rect width="17" height="17" fill="white"/>
</clipPath>
</defs>
</svg>
