<svg width="20" height="20" viewBox="0 0 20 20" fill="none" xmlns="http://www.w3.org/2000/svg">
<g clip-path="url(#clip0_1215_27221)">
<path d="M2.66757 5.16715H4.49138C4.85135 6.49158 6.21681 7.27344 7.54124 6.91348C8.39187 6.68228 9.05637 6.01779 9.28756 5.16715H17.3328C17.7009 5.16715 17.9994 4.86871 17.9994 4.50056C17.9994 4.13241 17.7009 3.83397 17.3328 3.83397H9.28756C8.9276 2.50951 7.56214 1.72765 6.23771 2.08762C5.38708 2.31881 4.72258 2.98331 4.49138 3.83394H2.66757C2.29942 3.83394 2.00098 4.13238 2.00098 4.50053C2.00098 4.86868 2.29942 5.16715 2.66757 5.16715Z" fill="#858D9D"/>
<path d="M17.3328 9.3346H15.5089C15.1497 8.01036 13.785 7.22806 12.4607 7.58727C11.6094 7.81822 10.9444 8.48325 10.7134 9.3346H2.66757C2.29942 9.3346 2.00098 9.63304 2.00098 10.0012C2.00098 10.3693 2.29942 10.6678 2.66757 10.6678H10.7134C11.0727 11.992 12.4374 12.7743 13.7616 12.4151C14.6129 12.1842 15.278 11.5191 15.5089 10.6678H17.3328C17.7009 10.6678 17.9994 10.3693 17.9994 10.0012C17.9994 9.63304 17.7009 9.3346 17.3328 9.3346Z" fill="#858D9D"/>
<path d="M17.3328 14.8339H9.28756C8.9276 13.5095 7.56214 12.7277 6.23771 13.0876C5.38708 13.3188 4.72258 13.9833 4.49138 14.8339H2.66757C2.29942 14.8339 2.00098 15.1324 2.00098 15.5005C2.00098 15.8687 2.29942 16.1671 2.66757 16.1671H4.49138C4.85135 17.4915 6.21681 18.2734 7.54124 17.9134C8.39187 17.6822 9.05637 17.0177 9.28756 16.1671H17.3328C17.7009 16.1671 17.9994 15.8687 17.9994 15.5005C17.9994 15.1324 17.7009 14.8339 17.3328 14.8339Z" fill="#858D9D"/>
</g>
<defs>
<clipPath id="clip0_1215_27221">
<rect width="16" height="16" fill="white" transform="translate(2 2)"/>
</clipPath>
</defs>
</svg>
