<svg width="23" height="21" viewBox="0 0 23 21" fill="none" xmlns="http://www.w3.org/2000/svg">
<path id="Vector" d="M3.45 9C4.71859 9 5.75 7.65469 5.75 6C5.75 4.34531 4.71859 3 3.45 3C2.18141 3 1.15 4.34531 1.15 6C1.15 7.65469 2.18141 9 3.45 9ZM19.55 9C20.8186 9 21.85 7.65469 21.85 6C21.85 4.34531 20.8186 3 19.55 3C18.2814 3 17.25 4.34531 17.25 6C17.25 7.65469 18.2814 9 19.55 9ZM20.7 10.5H18.4C17.7675 10.5 17.1961 10.8328 16.7792 11.3719C18.2275 12.4078 19.2553 14.2781 19.4781 16.5H21.85C22.4861 16.5 23 15.8297 23 15V13.5C23 11.8453 21.9686 10.5 20.7 10.5ZM11.5 10.5C13.7245 10.5 15.525 8.15156 15.525 5.25C15.525 2.34844 13.7245 0 11.5 0C9.27547 0 7.475 2.34844 7.475 5.25C7.475 8.15156 9.27547 10.5 11.5 10.5ZM14.26 12H13.9617C13.2142 12.4688 12.3841 12.75 11.5 12.75C10.6159 12.75 9.78937 12.4688 9.03828 12H8.74C6.45437 12 4.6 14.4188 4.6 17.4V18.75C4.6 19.9922 5.37266 21 6.325 21H16.675C17.6273 21 18.4 19.9922 18.4 18.75V17.4C18.4 14.4188 16.5456 12 14.26 12ZM6.22078 11.3719C5.80391 10.8328 5.2325 10.5 4.6 10.5H2.3C1.03141 10.5 0 11.8453 0 13.5V15C0 15.8297 0.513906 16.5 1.15 16.5H3.51828C3.74469 14.2781 4.7725 12.4078 6.22078 11.3719Z" fill="#555555"/>
</svg>
