<svg width="19" height="15" viewBox="0 0 19 15" fill="none" xmlns="http://www.w3.org/2000/svg">
<path d="M12.7557 10.5738C12.0389 10.2909 11.7526 9.51328 11.7526 9.51328C11.7526 9.51328 11.4296 9.68942 11.4296 9.19474C11.4296 8.70007 11.7526 9.51328 12.0756 7.60329C12.0756 7.60329 12.9704 7.35533 12.7912 5.30481H12.5759C12.5759 5.30481 13.1142 3.1125 12.5759 2.36924C12.0376 1.62723 11.8235 1.13255 10.6399 0.778411C9.4563 0.424269 9.88757 0.494848 9.02693 0.531074C8.16566 0.5673 7.44877 1.02637 7.44877 1.27433C7.44877 1.27433 6.91047 1.30931 6.69642 1.52167C6.4811 1.73403 6.12266 2.72338 6.12266 2.97072C6.12266 3.21805 6.30188 4.88196 6.4811 5.23485L6.26768 5.30605C6.08783 7.35658 6.9833 7.60454 6.9833 7.60454C7.30628 9.51453 7.62926 8.70132 7.62926 9.19599C7.62926 9.69067 7.30628 9.51453 7.30628 9.51453C7.30628 9.51453 7.02003 10.2921 6.30315 10.5751C5.58626 10.8574 1.60666 12.3776 1.28305 12.6962C0.958803 13.0147 0.995534 14.5 0.995534 14.5H18.0608C18.0608 14.5 18.0988 13.0154 17.7746 12.6962C17.4516 12.3776 13.4714 10.8574 12.7545 10.5751L12.7557 10.5738ZM4.85861 10.4664C4.79528 10.354 4.76488 10.2728 4.76488 10.2728C4.76488 10.2728 4.4913 10.4227 4.4913 10.003C4.4913 9.58324 4.76488 10.2728 5.03846 8.65385C5.03846 8.65385 5.79841 8.44461 5.64642 6.70638H5.46277C5.46277 6.70638 5.55396 6.33788 5.61349 5.87318C5.61082 5.66556 5.61864 5.45794 5.63692 5.25109L5.66099 4.98502C5.64832 4.67772 5.59323 4.3979 5.4634 4.21927C5.00743 3.59031 4.82505 3.16996 3.82318 2.87016C2.82005 2.57036 3.18355 2.63032 2.45527 2.66092C1.72572 2.69215 1.11776 3.08064 1.11776 3.29176C1.11776 3.29176 0.661789 3.32111 0.479401 3.50099C0.308413 3.66963 0.0329311 4.41414 0 4.67834V4.85323C0.030398 5.26171 0.164656 6.38347 0.297647 6.64767L0.116526 6.70763C-0.0354643 8.44524 0.724485 8.6551 0.724485 8.6551C0.9968 10.2728 1.27102 9.58449 1.27102 10.0042C1.27102 10.4239 0.997434 10.2728 0.997434 10.2728C0.997434 10.2728 0.754883 10.9336 0.146924 11.1722L0 11.2297V14.4987H0.364142C0.345144 13.7005 0.412906 12.6706 0.836578 12.254C1.06266 12.0322 1.80171 11.6669 4.85988 10.4664H4.85861ZM19 4.81013C18.9747 4.57404 18.9196 4.36355 18.8151 4.21927C18.3604 3.58968 18.1774 3.16996 17.1749 2.87016C16.1724 2.57036 16.5371 2.63032 15.8069 2.66092C15.0787 2.69215 14.4707 3.08064 14.4707 3.29176C14.4707 3.29176 14.0147 3.32111 13.8323 3.50099C13.6614 3.67088 13.3827 4.42039 13.3523 4.68147H13.3732L13.4239 5.25234C13.4365 5.396 13.4378 5.52404 13.441 5.65457C13.498 6.07055 13.574 6.49777 13.65 6.64767L13.4688 6.70701C13.3168 8.44461 14.0768 8.65447 14.0768 8.65447C14.3504 10.2722 14.6233 9.58386 14.6233 10.0036C14.6233 10.4233 14.351 10.2722 14.351 10.2722C14.351 10.2722 14.3168 10.3615 14.2472 10.4845C17.268 11.6712 18.0007 12.0335 18.2242 12.254C18.6485 12.6712 18.7144 13.7005 18.696 14.4994H19V11.1859L18.9683 11.1722C18.3604 10.933 18.1172 10.2728 18.1172 10.2728C18.1172 10.2728 17.843 10.4227 17.843 10.0042C17.843 9.58574 18.1172 10.2728 18.3901 8.6551C18.3901 8.6551 18.8993 8.51144 19 7.50586V6.73886C19 6.72762 19 6.71825 18.9981 6.70763H18.8144C18.8144 6.70763 18.9512 6.15175 19 5.54465V4.81013Z" fill="#6E7485"/>
</svg>
