<svg width="72" height="72" viewBox="0 0 72 72" fill="none" xmlns="http://www.w3.org/2000/svg">
<g id="streamline:subscription-cashflow">
<rect width="72" height="72" fill="white"/>
<g id="Group">
<path id="Vector" d="M42.948 27.2919C42.535 26.1216 41.769 25.1082 40.7558 24.3916C39.7425 23.6749 38.5319 23.2903 37.2908 23.2908H32.6468C31.3219 23.2838 30.0415 23.7684 29.0532 24.6508C28.0649 25.5332 27.4389 26.7507 27.2962 28.068C27.1535 29.3852 27.5044 30.7085 28.2809 31.782C29.0573 32.8556 30.2043 33.603 31.5 33.8799L38.5714 35.4228C40.0173 35.7393 41.2953 36.579 42.1597 37.7806C43.0242 38.9821 43.4141 40.4607 43.2546 41.9322C43.0952 43.4038 42.3975 44.7645 41.2958 45.753C40.194 46.7414 38.7658 47.2879 37.2857 47.2873H33.2897C30.6771 47.2873 28.4554 45.6211 27.6325 43.2913M35.2902 23.2908V17.2891M35.2902 53.2891V47.2925M10.2754 69.4171V56.5599H23.1325" stroke="#00AFEF" stroke-linecap="round" stroke-linejoin="round"/>
<path id="Vector_2" d="M68.8525 29.8487C70.2178 37.127 69.1277 44.6525 65.7535 51.2443C62.3792 57.836 56.9116 63.1207 50.209 66.269C43.5064 69.4173 35.9481 70.2509 28.7205 68.639C21.4929 67.0271 15.0051 63.061 10.2753 57.363M3.14734 42.1505C1.78203 34.8722 2.87207 27.3467 6.24636 20.7549C9.62066 14.1632 15.0882 8.87846 21.7908 5.73017C28.4934 2.58188 36.0517 1.74827 43.2793 3.36018C50.5069 4.97208 56.9947 8.93824 61.7245 14.6362" stroke="#00AFEF" stroke-linecap="round" stroke-linejoin="round"/>
<path id="Vector_3" d="M61.7243 2.58203V15.4392H48.8672" stroke="#00AFEF" stroke-linecap="round" stroke-linejoin="round"/>
</g>
</g>
</svg>
