<svg width="62" height="23" viewBox="0 0 62 23" fill="none" xmlns="http://www.w3.org/2000/svg">
<rect x="0.25" y="0.25" width="26.5" height="22.5" rx="3.75" stroke="#00AFEF" stroke-opacity="0.2" stroke-width="0.5"/>
<path d="M11 20.5H16V15.5H11V20.5ZM17.5 20.5H19.25C20.112 20.5 20.9386 20.1576 21.5481 19.5481C22.1576 18.9386 22.5 18.112 22.5 17.25V15.5H17.5V20.5ZM22.5 14V9H17.5V14H22.5ZM22.5 7.5V5.75C22.5 4.88805 22.1576 4.0614 21.5481 3.4519C20.9386 2.84241 20.112 2.5 19.25 2.5H17.5V7.5H22.5ZM16 2.5H11V7.5H16V2.5ZM9.5 2.5H7.75C6.88805 2.5 6.0614 2.84241 5.4519 3.4519C4.84241 4.0614 4.5 4.88805 4.5 5.75V7.5H9.5V2.5ZM4.5 9V14H9.5V9H4.5ZM4.5 15.5V17.25C4.5 18.112 4.84241 18.9386 5.4519 19.5481C6.0614 20.1576 6.88805 20.5 7.75 20.5H9.5V15.5H4.5ZM16 9V14H11V9H16Z" fill="#00AFEF"/>
<rect x="37.25" y="0.25" width="24.5" height="22.5" rx="3.75" stroke="black" stroke-opacity="0.4" stroke-width="0.5"/>
<path d="M43.5 7C43.5 6.73478 43.6054 6.48043 43.7929 6.29289C43.9804 6.10536 44.2348 6 44.5 6H47.5C47.7652 6 48.0196 6.10536 48.2071 6.29289C48.3946 6.48043 48.5 6.73478 48.5 7V8C48.5 8.26522 48.3946 8.51957 48.2071 8.70711C48.0196 8.89464 47.7652 9 47.5 9H44.5C44.2348 9 43.9804 8.89464 43.7929 8.70711C43.6054 8.51957 43.5 8.26522 43.5 8V7ZM47.5 7H44.5V8H47.5V7ZM50.5 7C50.5 6.73478 50.6054 6.48043 50.7929 6.29289C50.9804 6.10536 51.2348 6 51.5 6H54.5C54.7652 6 55.0196 6.10536 55.2071 6.29289C55.3946 6.48043 55.5 6.73478 55.5 7V8C55.5 8.26522 55.3946 8.51957 55.2071 8.70711C55.0196 8.89464 54.7652 9 54.5 9H51.5C51.2348 9 50.9804 8.89464 50.7929 8.70711C50.6054 8.51957 50.5 8.26522 50.5 8V7ZM54.5 7H51.5V8H54.5V7ZM44.5 10C44.2348 10 43.9804 10.1054 43.7929 10.2929C43.6054 10.4804 43.5 10.7348 43.5 11V12C43.5 12.2652 43.6054 12.5196 43.7929 12.7071C43.9804 12.8946 44.2348 13 44.5 13H47.5C47.7652 13 48.0196 12.8946 48.2071 12.7071C48.3946 12.5196 48.5 12.2652 48.5 12V11C48.5 10.7348 48.3946 10.4804 48.2071 10.2929C48.0196 10.1054 47.7652 10 47.5 10H44.5ZM44.5 11H47.5V12H44.5V11ZM50.5 11C50.5 10.7348 50.6054 10.4804 50.7929 10.2929C50.9804 10.1054 51.2348 10 51.5 10H54.5C54.7652 10 55.0196 10.1054 55.2071 10.2929C55.3946 10.4804 55.5 10.7348 55.5 11V12C55.5 12.2652 55.3946 12.5196 55.2071 12.7071C55.0196 12.8946 54.7652 13 54.5 13H51.5C51.2348 13 50.9804 12.8946 50.7929 12.7071C50.6054 12.5196 50.5 12.2652 50.5 12V11ZM54.5 11H51.5V12H54.5V11ZM44.5 14C44.2348 14 43.9804 14.1054 43.7929 14.2929C43.6054 14.4804 43.5 14.7348 43.5 15V16C43.5 16.2652 43.6054 16.5196 43.7929 16.7071C43.9804 16.8946 44.2348 17 44.5 17H47.5C47.7652 17 48.0196 16.8946 48.2071 16.7071C48.3946 16.5196 48.5 16.2652 48.5 16V15C48.5 14.7348 48.3946 14.4804 48.2071 14.2929C48.0196 14.1054 47.7652 14 47.5 14H44.5ZM44.5 15H47.5V16H44.5V15Z" fill="black" fill-opacity="0.55"/>
</svg>
